<?xml version="1.0" encoding="utf-8"?>
<!-- Generator: Adobe Illustrator 21.0.2, SVG Export Plug-In . SVG Version: 6.00 Build 0)  -->
<svg version="1.1" id="Layer_1" xmlns="http://www.w3.org/2000/svg" xmlns:xlink="http://www.w3.org/1999/xlink" x="0px" y="0px"
	 viewBox="0 0 180 180" style="enable-background:new 0 0 180 180;" xml:space="preserve">
<style type="text/css">
	.st0{fill:#089BD7;}
	.st1{fill:#F8BE15;}
</style>
<g>
	<g>
		<path class="st0" d="M125,84.2l-9.7,6.2c1,3.1,1.8,6.3,2.5,9.5c0.9,4.8,1.4,9.6,1.3,14.3c-0.2,4.7-1.2,9.2-3.1,13
			c-2,3.6-5,6.1-9,6.5c-3.9,0.6-8.5-1.1-12.5-3.4c-8.2-4.9-15-12.9-20-21.6c-5.1-8.7-8.6-18.4-10.2-28.3c-0.7-5-1.1-10-0.6-14.8
			c0.5-4.8,1.7-9.6,4-13.3c2.4-3.7,5.8-5.9,9.7-6c3.9-0.2,8.2,1.7,12,4.2c5.4,3.8,10.2,9,14.1,14.8l9.9-4.2c-1.9-2.6-3.8-5.1-6-7.5
			c-3.8-4.1-8-8-13-11c-2.5-1.5-5.2-2.8-8.1-3.6c-1.4-0.5-3-0.7-4.5-1c-1.6,0-3.2-0.3-4.8,0c-3.3,0.2-6.5,1.6-9.2,3.4
			c-2.8,1.9-4.7,4.5-6.3,7c-2.9,5.3-4,11.1-4.3,16.6c-0.2,5.6,0.2,11,1.2,16.4c2.1,10.6,5.8,20.8,11.1,30.2
			c2.6,4.7,5.6,9.2,9.2,13.4c3.5,4.2,7.4,8.1,12.2,11.3c4.7,3.1,10.3,5.8,16.9,5.5c3.3,0,6.6-1.2,9.4-2.9c2.9-1.8,5-4.3,6.8-6.9
			c3.3-5.4,4.7-11.2,5.3-16.9c0.6-5.7,0.2-11.4-0.5-16.9C127.7,93.3,126.5,88.7,125,84.2z"/>
		<path class="st0" d="M117.9,65.2c-4,0.8-7.7,2.1-11,3.6c-9.4,4-15.7,9.3-15.7,9.3s7.9,0,11.2,1.5c-0.3,4.3-2.1,14.5-2.1,14.5
			s13.6-7.3,25-19.1c3.1-3.2,6-6.6,8.4-10.3C128.2,63.7,122.8,64.1,117.9,65.2z"/>
	</g>
	<g>
		<path class="st1" d="M78,105.7l18.5-10.7c0,0,0.5-4,1.3-9.1l-22.7,14.4C76,102.1,77,103.9,78,105.7z"/>
		<path class="st1" d="M46.9,118.2l-0.6,5.8L65,113.2c-0.9-1.6-1.7-3.2-2.5-4.9L46.9,118.2z"/>
		<path class="st1" d="M88,81.1L71.6,91.2c0.6,1.7,1.2,3.3,1.8,5l21.9-13.7C92.8,81.3,88,81.1,88,81.1z"/>
		<path class="st1" d="M58.6,99.3l-11,6.8l-0.9,6.8l14-8.7C59.9,102.6,59.2,101,58.6,99.3z"/>
	</g>
</g>
</svg>
